<svg xmlns="http://www.w3.org/2000/svg" width="35.999" height="49.999" viewBox="0 0 35.999 49.999">
  <path id="Union_6" data-name="Union 6" d="M-8168,50a2,2,0,0,1-2-2V44h-8a4,4,0,0,1-4,4,4,4,0,0,1-4-4h-8V41h9.353a3.989,3.989,0,0,1,1.647-.874V28a2,2,0,0,1-2-2V18a2,2,0,0,1,2-2V10.874A4.005,4.005,0,0,1-8185.874,8H-8194V5h8.534A4,4,0,0,1-8182,3a4,4,0,0,1,3.464,2H-8170V2a2,2,0,0,1,2-2h2a2,2,0,0,1,2,2V12a2,2,0,0,1-2,2h-2a2,2,0,0,1-2-2V8h-8.127A4,4,0,0,1-8181,10.873V16a2,2,0,0,1,2,2v8a2,2,0,0,1-2,2V40.126a3.987,3.987,0,0,1,1.645.874H-8170V38a2,2,0,0,1,2-2h2a2,2,0,0,1,2,2V48a2,2,0,0,1-2,2Zm-30,0a2,2,0,0,1-2-2V38a2,2,0,0,1,2-2h2a2,2,0,0,1,2,2V48a2,2,0,0,1-2,2Zm0-36a2,2,0,0,1-2-2V2a2,2,0,0,1,2-2h2a2,2,0,0,1,2,2V12a2,2,0,0,1-2,2Z" transform="translate(8200)" fill="#858585"/>
</svg>
