<svg xmlns="http://www.w3.org/2000/svg" width="18" height="18" viewBox="0 0 18 18">
  <path id="Path_15139" data-name="Path 15139" d="M18,8.862v.282c-.013.074-.03.148-.038.223-.039.379-.055.761-.116,1.136a8.531,8.531,0,0,1-2.239,4.582,8.741,8.741,0,0,1-8.247,2.759A8.575,8.575,0,0,1,1.7,14.257,8.782,8.782,0,0,1,.13,7.5,8.663,8.663,0,0,1,2.407,2.875,8.777,8.777,0,0,1,7.825.08,8.759,8.759,0,0,1,11.24.286a8.851,8.851,0,0,1,5.177,3.652A8.692,8.692,0,0,1,17.961,8.6,2.3,2.3,0,0,0,18,8.862m-6.182,4.4,1.416-1.422c-.032-.033-.079-.084-.128-.134-.85-.852-1.7-1.707-2.553-2.554-.117-.116-.11-.181,0-.293Q11.838,7.584,13.109,6.3c.052-.052.1-.109.126-.14L11.818,4.747c-.033.031-.084.078-.133.127Q10.409,6.151,9.136,7.432c-.113.114-.177.119-.293,0Q7.569,6.143,6.283,4.863c-.048-.048-.1-.092-.131-.12L4.737,6.159c.034.037.079.089.128.138.85.853,1.7,1.707,2.553,2.554.123.122.116.188,0,.306-.855.847-1.7,1.7-2.553,2.554-.049.049-.094.1-.128.139l1.412,1.418c.038-.035.09-.079.139-.128l2.526-2.531c.178-.178.178-.178.35-.005l2.526,2.531c.049.049.1.095.131.123" transform="translate(0 0)" fill="#d1292b"/>
</svg>
