<svg xmlns="http://www.w3.org/2000/svg" width="52.667" height="36.867" viewBox="0 0 52.667 36.867">
  <g id="motor-svgrepo-com" transform="translate(0 -76.8)">
    <g id="Group_5270" data-name="Group 5270" transform="translate(0 76.8)">
      <path id="Path_15127" data-name="Path 15127" d="M50.034,95.233V84.7A2.633,2.633,0,0,0,47.4,82.067H25.017V79.433h7.9a1.317,1.317,0,1,0,0-2.633H14.483a1.317,1.317,0,1,0,0,2.633h7.9v2.633H7.9A2.633,2.633,0,0,0,5.267,84.7v9.217H2.633v-7.9a1.317,1.317,0,1,0-2.633,0V104.45a1.317,1.317,0,0,0,2.633,0v-7.9H5.267v9.217A2.633,2.633,0,0,0,7.9,108.4h9.442l4.5,4.5a2.634,2.634,0,0,0,1.863.772H50.034a2.633,2.633,0,0,0,2.633-2.633V97.867A2.633,2.633,0,0,0,50.034,95.233Zm0,15.8H23.7l-5.267-5.267H7.9V84.7H47.4V97.867h2.633Z" transform="translate(0 -76.8)" fill="#858585"/>
      <path id="Path_15128" data-name="Path 15128" d="M106.35,187.1a3.95,3.95,0,1,0-3.95-3.95A3.955,3.955,0,0,0,106.35,187.1Zm0-5.267a1.317,1.317,0,1,1-1.317,1.317A1.317,1.317,0,0,1,106.35,181.833Z" transform="translate(-91.867 -168.667)" fill="#858585"/>
      <path id="Path_15129" data-name="Path 15129" d="M191.683,187.1a3.95,3.95,0,1,0-3.95-3.95A3.955,3.955,0,0,0,191.683,187.1Zm0-5.267a1.317,1.317,0,1,1-1.317,1.317A1.316,1.316,0,0,1,191.683,181.833Z" transform="translate(-168.422 -168.667)" fill="#858585"/>
      <path id="Path_15130" data-name="Path 15130" d="M277.017,187.1a3.95,3.95,0,1,0-3.95-3.95A3.955,3.955,0,0,0,277.017,187.1Zm0-5.267a1.317,1.317,0,1,1-1.317,1.317A1.317,1.317,0,0,1,277.017,181.833Z" transform="translate(-244.978 -168.667)" fill="#858585"/>
      <path id="Path_15131" data-name="Path 15131" d="M362.35,187.1a3.95,3.95,0,1,0-3.95-3.95A3.955,3.955,0,0,0,362.35,187.1Zm0-5.267a1.317,1.317,0,1,1-1.317,1.317A1.317,1.317,0,0,1,362.35,181.833Z" transform="translate(-321.533 -168.667)" fill="#858585"/>
      <rect id="Rectangle_2576" data-name="Rectangle 2576" width="36.867" height="2.633" transform="translate(10.533 23.7)" fill="#858585"/>
      <circle id="Ellipse_412" data-name="Ellipse 412" cx="1.317" cy="1.317" r="1.317" transform="translate(44.767 28.967)" fill="#858585"/>
      <circle id="Ellipse_413" data-name="Ellipse 413" cx="1.317" cy="1.317" r="1.317" transform="translate(39.5 28.967)" fill="#858585"/>
      <circle id="Ellipse_414" data-name="Ellipse 414" cx="1.317" cy="1.317" r="1.317" transform="translate(34.234 28.967)" fill="#858585"/>
      <circle id="Ellipse_415" data-name="Ellipse 415" cx="1.317" cy="1.317" r="1.317" transform="translate(28.967 28.967)" fill="#858585"/>
      <circle id="Ellipse_416" data-name="Ellipse 416" cx="1.317" cy="1.317" r="1.317" transform="translate(23.7 28.967)" fill="#858585"/>
    </g>
  </g>
</svg>
