<svg xmlns="http://www.w3.org/2000/svg" width="60.349" height="45.75" viewBox="0 0 60.349 45.75">
  <path id="_8541772_car_transport_icon" data-name="8541772_car_transport_icon" d="M56.968,76.76H50.147l-1.9-4.74A12.7,12.7,0,0,0,36.4,64H21.935a12.7,12.7,0,0,0-11.848,8.021l-1.9,4.74H1.372a1.367,1.367,0,0,0-1.326,1.7l.684,2.734a1.366,1.366,0,0,0,1.326,1.036H4.342A7.241,7.241,0,0,0,1.826,87.7v5.469a7.232,7.232,0,0,0,1.823,4.777v6.16a3.646,3.646,0,0,0,3.646,3.646h3.646a3.646,3.646,0,0,0,3.646-3.646v-3.646H43.753V104.1A3.646,3.646,0,0,0,47.4,107.75h3.646a3.646,3.646,0,0,0,3.646-3.646v-6.16a7.228,7.228,0,0,0,1.823-4.777V87.7A7.244,7.244,0,0,0,54,82.229h2.287a1.366,1.366,0,0,0,1.326-1.036l.684-2.734a1.368,1.368,0,0,0-1.327-1.7ZM16.857,74.729a5.469,5.469,0,0,1,5.078-3.437H36.4a5.469,5.469,0,0,1,5.078,3.437l2.271,5.677H14.587ZM10.941,93.144a3.634,3.634,0,1,1,0-7.269c2.188,0,5.469,3.271,5.469,5.452S13.128,93.144,10.941,93.144Zm36.458,0c-2.188,0-5.469.363-5.469-1.817s3.281-5.452,5.469-5.452a3.634,3.634,0,1,1,0,7.269Z" transform="translate(1.004 -63)" fill="none" stroke="#707070" stroke-width="2"/>
</svg>
