<svg xmlns="http://www.w3.org/2000/svg" width="35.987" height="56.5" viewBox="0 0 35.987 56.5">
  <path id="car-seat-with-seatbelt-svgrepo-com" d="M87.562,55.063A1.437,1.437,0,0,1,86.125,56.5H78.359a1.437,1.437,0,0,1,0-2.873h7.766A1.437,1.437,0,0,1,87.562,55.063ZM100.236,41.34v4.139a5.582,5.582,0,0,1-5.576,5.576H69.825a5.582,5.582,0,0,1-5.576-5.576V41.34A1.437,1.437,0,0,1,65.686,39.9h.382c0-.041-.005-.083-.005-.125v-3.85a1.438,1.438,0,0,1,.685-1.258,1.433,1.433,0,0,1,.231-.115q.853-.355,1.693-.732V16.269a6.781,6.781,0,0,1,4.406-6.325c0-.079,0-.157,0-.236V6.159A6.165,6.165,0,0,1,79.231,0h6.022a6.165,6.165,0,0,1,6.158,6.159V9.707q0,.119,0,.236a6.771,6.771,0,0,1,2.666,1.812l.076-.144a1.437,1.437,0,0,1,2.541,1.341A47.418,47.418,0,0,1,85.084,26.988a63.959,63.959,0,0,1-13.539,8.67V39.9H92.94V22.611a1.437,1.437,0,1,1,2.873,0V39.9H98.8A1.437,1.437,0,0,1,100.236,41.34ZM75.946,9.707a3.282,3.282,0,0,0,.112.851c.012.035.022.071.031.107a3.291,3.291,0,0,0,3.142,2.327h6.022A3.291,3.291,0,0,0,88.4,10.666q.014-.055.031-.109a3.282,3.282,0,0,0,.111-.85V6.159a3.289,3.289,0,0,0-3.285-3.285H79.231a3.289,3.289,0,0,0-3.285,3.285Zm-4.4,22.743c8.969-4.553,16.337-10.879,20.938-18a3.909,3.909,0,0,0-1.862-1.729,6.163,6.163,0,0,1-5.368,3.142H79.231a6.163,6.163,0,0,1-5.368-3.142,3.892,3.892,0,0,0-2.318,3.545ZM97.362,42.776H67.122v2.7a2.705,2.705,0,0,0,2.7,2.7H94.66a2.706,2.706,0,0,0,2.7-2.7Z" transform="translate(-64.249)" fill="#858585"/>
</svg>
