<svg xmlns="http://www.w3.org/2000/svg" width="18" height="16.014" viewBox="0 0 18 16.014">
  <path id="_216259_info_icon_1_" data-name="216259_info_icon (1)" d="M19.569,14.4,14.155,5.373a3.511,3.511,0,0,0-2.984-1.862,3.513,3.513,0,0,0-2.984,1.86L2.774,14.4A3.424,3.424,0,0,0,2.558,17.9a3.424,3.424,0,0,0,3.119,1.623H16.665A3.425,3.425,0,0,0,19.784,17.9,3.425,3.425,0,0,0,19.569,14.4Zm-8.4-6.363a1.42,1.42,0,1,1-1.42,1.42A1.426,1.426,0,0,1,11.171,8.033Zm1.547,7.747a2.628,2.628,0,0,1-1.894.841c-.047,0-.094,0-.141,0A1.366,1.366,0,0,1,9.6,16.036a1.886,1.886,0,0,1-.111-1.671l.372-1.118c.206-.625.009-.725-.1-.778a.294.294,0,0,0-.128-.023,1.742,1.742,0,0,0-.648.189.229.229,0,0,1-.278-.353,2.62,2.62,0,0,1,2.036-.837,1.362,1.362,0,0,1,1.082.578,1.891,1.891,0,0,1,.114,1.674l-.372,1.118c-.208.624-.009.725.1.778a.289.289,0,0,0,.125.021,1.771,1.771,0,0,0,.652-.188.227.227,0,0,1,.284.062A.232.232,0,0,1,12.719,15.78Z" transform="translate(-2.171 -3.511)" fill="#eab120"/>
</svg>
